<mxfile host="app.diagrams.net" modified="2023-01-04T15:57:25.507Z" agent="5.0 (Windows NT 10.0; Win64; x64) AppleWebKit/537.36 (KHTML, like Gecko) Chrome/108.0.0.0 Safari/537.36" etag="Ty5p4_c9OOEPbI_6SfB_" version="20.7.4" type="github">
  <diagram id="zPU-ZQHdzsCE8Zm9KI6f" name="Page-1">
    <mxGraphModel dx="1235" dy="651" grid="1" gridSize="10" guides="1" tooltips="1" connect="1" arrows="1" fold="1" page="1" pageScale="1" pageWidth="827" pageHeight="1169" math="0" shadow="0">
      <root>
        <mxCell id="0" />
        <mxCell id="1" parent="0" />
        <mxCell id="BPOh-EkQY-3shNrvovxU-1" value="Get Synonyms &amp;amp; Antonyms" style="ellipse;whiteSpace=wrap;html=1;fillColor=#dae8fc;strokeColor=#6c8ebf;" parent="1" vertex="1">
          <mxGeometry x="264" y="190" width="150" height="80" as="geometry" />
        </mxCell>
        <mxCell id="BPOh-EkQY-3shNrvovxU-2" value="Get Word Definitions" style="ellipse;whiteSpace=wrap;html=1;fillColor=#dae8fc;strokeColor=#6c8ebf;" parent="1" vertex="1">
          <mxGeometry x="264" y="60" width="150" height="80" as="geometry" />
        </mxCell>
        <mxCell id="BPOh-EkQY-3shNrvovxU-3" value="Set Word Status" style="ellipse;whiteSpace=wrap;html=1;fillColor=#dae8fc;strokeColor=#6c8ebf;" parent="1" vertex="1">
          <mxGeometry x="264" y="310" width="150" height="80" as="geometry" />
        </mxCell>
        <mxCell id="BPOh-EkQY-3shNrvovxU-5" value="End-User" style="shape=umlActor;verticalLabelPosition=bottom;verticalAlign=top;html=1;outlineConnect=0;" parent="1" vertex="1">
          <mxGeometry x="30" y="454.72" width="40" height="80" as="geometry" />
        </mxCell>
        <mxCell id="9B-9gMZka3vors6aTcEZ-6" value="&amp;lt;&amp;lt;include&amp;gt;&amp;gt;" style="endArrow=open;endSize=12;dashed=1;html=1;rounded=0;entryX=0;entryY=0.5;entryDx=0;entryDy=0;" edge="1" parent="1" source="BPOh-EkQY-3shNrvovxU-2" target="9B-9gMZka3vors6aTcEZ-11">
          <mxGeometry x="0.1387" y="-2" width="160" relative="1" as="geometry">
            <mxPoint x="450" y="200" as="sourcePoint" />
            <mxPoint x="570" y="40" as="targetPoint" />
            <mxPoint as="offset" />
          </mxGeometry>
        </mxCell>
        <mxCell id="9B-9gMZka3vors6aTcEZ-8" value="&amp;lt;&amp;lt;include&amp;gt;&amp;gt;" style="endArrow=open;endSize=12;dashed=1;html=1;rounded=0;exitX=0.984;exitY=0.358;exitDx=0;exitDy=0;exitPerimeter=0;entryX=0;entryY=0.5;entryDx=0;entryDy=0;" edge="1" parent="1" source="BPOh-EkQY-3shNrvovxU-2" target="9B-9gMZka3vors6aTcEZ-12">
          <mxGeometry width="160" relative="1" as="geometry">
            <mxPoint x="449.99640377599314" y="179.09136471260138" as="sourcePoint" />
            <mxPoint x="620" y="80" as="targetPoint" />
          </mxGeometry>
        </mxCell>
        <mxCell id="9B-9gMZka3vors6aTcEZ-9" value="&amp;lt;&amp;lt;include&amp;gt;&amp;gt;" style="endArrow=open;endSize=12;dashed=1;html=1;rounded=0;exitX=1.008;exitY=0.6;exitDx=0;exitDy=0;exitPerimeter=0;" edge="1" parent="1" source="BPOh-EkQY-3shNrvovxU-2" target="9B-9gMZka3vors6aTcEZ-13">
          <mxGeometry width="160" relative="1" as="geometry">
            <mxPoint x="449.99640377599326" y="220.09136471260138" as="sourcePoint" />
            <mxPoint x="610" y="110" as="targetPoint" />
          </mxGeometry>
        </mxCell>
        <mxCell id="9B-9gMZka3vors6aTcEZ-10" value="&amp;lt;&amp;lt;include&amp;gt;&amp;gt;" style="endArrow=open;endSize=12;dashed=1;html=1;rounded=0;entryX=0.076;entryY=0.227;entryDx=0;entryDy=0;entryPerimeter=0;" edge="1" parent="1" source="BPOh-EkQY-3shNrvovxU-2" target="9B-9gMZka3vors6aTcEZ-14">
          <mxGeometry width="160" relative="1" as="geometry">
            <mxPoint x="399.99640377599326" y="240.09136471260138" as="sourcePoint" />
            <mxPoint x="620" y="150" as="targetPoint" />
            <Array as="points" />
          </mxGeometry>
        </mxCell>
        <mxCell id="9B-9gMZka3vors6aTcEZ-11" value="&amp;nbsp; &amp;nbsp;Pronunciation&lt;span style=&quot;white-space: pre;&quot;&gt;	&lt;/span&gt;" style="ellipse;whiteSpace=wrap;html=1;" vertex="1" parent="1">
          <mxGeometry x="570" y="10" width="110" height="50" as="geometry" />
        </mxCell>
        <mxCell id="9B-9gMZka3vors6aTcEZ-12" value="Phonetic" style="ellipse;whiteSpace=wrap;html=1;" vertex="1" parent="1">
          <mxGeometry x="630" y="60" width="110" height="50" as="geometry" />
        </mxCell>
        <mxCell id="9B-9gMZka3vors6aTcEZ-13" value="Short Definition" style="ellipse;whiteSpace=wrap;html=1;" vertex="1" parent="1">
          <mxGeometry x="620" y="120" width="110" height="50" as="geometry" />
        </mxCell>
        <mxCell id="9B-9gMZka3vors6aTcEZ-14" value="Usage Example" style="ellipse;whiteSpace=wrap;html=1;" vertex="1" parent="1">
          <mxGeometry x="590" y="180" width="110" height="50" as="geometry" />
        </mxCell>
        <mxCell id="9B-9gMZka3vors6aTcEZ-15" value="" style="endArrow=none;html=1;rounded=0;exitX=1;exitY=0.3333333333333333;exitDx=0;exitDy=0;exitPerimeter=0;entryX=0;entryY=0.5;entryDx=0;entryDy=0;" edge="1" parent="1" source="BPOh-EkQY-3shNrvovxU-5" target="BPOh-EkQY-3shNrvovxU-2">
          <mxGeometry width="50" height="50" relative="1" as="geometry">
            <mxPoint x="300" y="390" as="sourcePoint" />
            <mxPoint x="350" y="340" as="targetPoint" />
          </mxGeometry>
        </mxCell>
        <mxCell id="9B-9gMZka3vors6aTcEZ-16" value="" style="endArrow=none;html=1;rounded=0;exitX=1;exitY=0.3333333333333333;exitDx=0;exitDy=0;exitPerimeter=0;entryX=0;entryY=0.5;entryDx=0;entryDy=0;" edge="1" parent="1" source="BPOh-EkQY-3shNrvovxU-5" target="BPOh-EkQY-3shNrvovxU-1">
          <mxGeometry width="50" height="50" relative="1" as="geometry">
            <mxPoint x="110" y="296.66666666666663" as="sourcePoint" />
            <mxPoint x="273.9999999999966" y="110" as="targetPoint" />
          </mxGeometry>
        </mxCell>
        <mxCell id="9B-9gMZka3vors6aTcEZ-17" value="&amp;lt;&amp;lt;extend&amp;gt;&amp;gt;" style="endArrow=open;endSize=12;dashed=1;html=1;rounded=0;exitX=0.949;exitY=0.182;exitDx=0;exitDy=0;exitPerimeter=0;entryX=0;entryY=0.5;entryDx=0;entryDy=0;" edge="1" parent="1" source="BPOh-EkQY-3shNrvovxU-3" target="9B-9gMZka3vors6aTcEZ-18">
          <mxGeometry width="160" relative="1" as="geometry">
            <mxPoint x="400.0035933127836" y="329.99625765947445" as="sourcePoint" />
            <mxPoint x="520" y="310" as="targetPoint" />
            <Array as="points" />
          </mxGeometry>
        </mxCell>
        <mxCell id="9B-9gMZka3vors6aTcEZ-18" value="Mastered" style="ellipse;whiteSpace=wrap;html=1;" vertex="1" parent="1">
          <mxGeometry x="450" y="230" width="110" height="50" as="geometry" />
        </mxCell>
        <mxCell id="9B-9gMZka3vors6aTcEZ-19" value="&amp;lt;&amp;lt;extend&amp;gt;&amp;gt;" style="endArrow=open;endSize=12;dashed=1;html=1;rounded=0;entryX=0;entryY=0.5;entryDx=0;entryDy=0;" edge="1" parent="1" target="9B-9gMZka3vors6aTcEZ-20" source="BPOh-EkQY-3shNrvovxU-3">
          <mxGeometry width="160" relative="1" as="geometry">
            <mxPoint x="413.9999999999999" y="404.56000000000006" as="sourcePoint" />
            <mxPoint x="527.65" y="390" as="targetPoint" />
            <Array as="points" />
          </mxGeometry>
        </mxCell>
        <mxCell id="9B-9gMZka3vors6aTcEZ-20" value="Unmastered" style="ellipse;whiteSpace=wrap;html=1;" vertex="1" parent="1">
          <mxGeometry x="530" y="280" width="110" height="50" as="geometry" />
        </mxCell>
        <mxCell id="9B-9gMZka3vors6aTcEZ-21" value="&amp;lt;&amp;lt;extend&amp;gt;&amp;gt;" style="endArrow=open;endSize=12;dashed=1;html=1;rounded=0;entryX=0;entryY=0.5;entryDx=0;entryDy=0;exitX=1;exitY=1;exitDx=0;exitDy=0;" edge="1" parent="1" target="9B-9gMZka3vors6aTcEZ-22" source="BPOh-EkQY-3shNrvovxU-3">
          <mxGeometry width="160" relative="1" as="geometry">
            <mxPoint x="369.99559440213386" y="472.3173347479875" as="sourcePoint" />
            <mxPoint x="487.28999999999996" y="500" as="targetPoint" />
            <Array as="points" />
          </mxGeometry>
        </mxCell>
        <mxCell id="9B-9gMZka3vors6aTcEZ-22" value="Learning" style="ellipse;whiteSpace=wrap;html=1;" vertex="1" parent="1">
          <mxGeometry x="650" y="320" width="110" height="50" as="geometry" />
        </mxCell>
        <mxCell id="9B-9gMZka3vors6aTcEZ-23" value="&amp;lt;&amp;lt;extend&amp;gt;&amp;gt;" style="endArrow=open;endSize=12;dashed=1;html=1;rounded=0;entryX=0;entryY=0.5;entryDx=0;entryDy=0;exitX=0.793;exitY=0.993;exitDx=0;exitDy=0;exitPerimeter=0;" edge="1" parent="1" target="9B-9gMZka3vors6aTcEZ-24" source="BPOh-EkQY-3shNrvovxU-3">
          <mxGeometry width="160" relative="1" as="geometry">
            <mxPoint x="359.99559440213375" y="532.3173347479874" as="sourcePoint" />
            <mxPoint x="477.28999999999996" y="560" as="targetPoint" />
            <Array as="points" />
          </mxGeometry>
        </mxCell>
        <mxCell id="9B-9gMZka3vors6aTcEZ-24" value="Unlearned" style="ellipse;whiteSpace=wrap;html=1;" vertex="1" parent="1">
          <mxGeometry x="710" y="370" width="110" height="50" as="geometry" />
        </mxCell>
        <mxCell id="9B-9gMZka3vors6aTcEZ-25" value="&amp;lt;&amp;lt;extend&amp;gt;&amp;gt;" style="endArrow=open;endSize=12;dashed=1;html=1;rounded=0;entryX=0.287;entryY=0.025;entryDx=0;entryDy=0;exitX=0.56;exitY=1.017;exitDx=0;exitDy=0;exitPerimeter=0;entryPerimeter=0;" edge="1" parent="1" target="9B-9gMZka3vors6aTcEZ-26" source="BPOh-EkQY-3shNrvovxU-3">
          <mxGeometry width="160" relative="1" as="geometry">
            <mxPoint x="220.00000000000006" y="460.00000000000006" as="sourcePoint" />
            <mxPoint x="314.34" y="630.56" as="targetPoint" />
            <Array as="points" />
          </mxGeometry>
        </mxCell>
        <mxCell id="9B-9gMZka3vors6aTcEZ-26" value="Favorite" style="ellipse;whiteSpace=wrap;html=1;" vertex="1" parent="1">
          <mxGeometry x="560" y="470" width="110" height="49.44" as="geometry" />
        </mxCell>
        <mxCell id="9B-9gMZka3vors6aTcEZ-27" value="&amp;lt;&amp;lt;extend&amp;gt;&amp;gt;" style="endArrow=open;endSize=12;dashed=1;html=1;rounded=0;entryX=0.287;entryY=0.025;entryDx=0;entryDy=0;entryPerimeter=0;exitX=0.5;exitY=1;exitDx=0;exitDy=0;" edge="1" parent="1" target="9B-9gMZka3vors6aTcEZ-28" source="BPOh-EkQY-3shNrvovxU-3">
          <mxGeometry width="160" relative="1" as="geometry">
            <mxPoint x="250.0017190942576" y="390.00113572690844" as="sourcePoint" />
            <mxPoint x="190.05999999999997" y="640.7499999999999" as="targetPoint" />
            <Array as="points" />
          </mxGeometry>
        </mxCell>
        <mxCell id="9B-9gMZka3vors6aTcEZ-28" value="Unfavorite" style="ellipse;whiteSpace=wrap;html=1;" vertex="1" parent="1">
          <mxGeometry x="690" y="460" width="110" height="50" as="geometry" />
        </mxCell>
        <mxCell id="9B-9gMZka3vors6aTcEZ-29" value="&amp;lt;&amp;lt;extend&amp;gt;&amp;gt;" style="endArrow=open;endSize=12;dashed=1;html=1;rounded=0;entryX=0.287;entryY=0.025;entryDx=0;entryDy=0;exitX=0.454;exitY=1.052;exitDx=0;exitDy=0;exitPerimeter=0;entryPerimeter=0;" edge="1" parent="1" target="9B-9gMZka3vors6aTcEZ-30">
          <mxGeometry width="160" relative="1" as="geometry">
            <mxPoint x="320.0999999999999" y="390.00000000000006" as="sourcePoint" />
            <mxPoint x="174.33999999999997" y="635.04" as="targetPoint" />
            <Array as="points" />
          </mxGeometry>
        </mxCell>
        <mxCell id="9B-9gMZka3vors6aTcEZ-30" value="Tag" style="ellipse;whiteSpace=wrap;html=1;" vertex="1" parent="1">
          <mxGeometry x="414" y="490.00000000000006" width="110" height="49.44" as="geometry" />
        </mxCell>
        <mxCell id="9B-9gMZka3vors6aTcEZ-31" value="&amp;lt;&amp;lt;extend&amp;gt;&amp;gt;" style="endArrow=open;endSize=12;dashed=1;html=1;rounded=0;entryX=0.287;entryY=0.025;entryDx=0;entryDy=0;exitX=0.04;exitY=0.75;exitDx=0;exitDy=0;exitPerimeter=0;entryPerimeter=0;" edge="1" parent="1" target="9B-9gMZka3vors6aTcEZ-32" source="BPOh-EkQY-3shNrvovxU-3">
          <mxGeometry width="160" relative="1" as="geometry">
            <mxPoint x="224.0999999999999" y="385.52" as="sourcePoint" />
            <mxPoint x="78.33999999999997" y="630.56" as="targetPoint" />
            <Array as="points" />
          </mxGeometry>
        </mxCell>
        <mxCell id="9B-9gMZka3vors6aTcEZ-32" value="Remove Tag" style="ellipse;whiteSpace=wrap;html=1;" vertex="1" parent="1">
          <mxGeometry x="264" y="460.56" width="110" height="49.44" as="geometry" />
        </mxCell>
        <mxCell id="9B-9gMZka3vors6aTcEZ-33" value="" style="endArrow=none;html=1;rounded=0;entryX=0;entryY=0.5;entryDx=0;entryDy=0;exitX=1;exitY=0.3333333333333333;exitDx=0;exitDy=0;exitPerimeter=0;" edge="1" parent="1" source="BPOh-EkQY-3shNrvovxU-5" target="BPOh-EkQY-3shNrvovxU-3">
          <mxGeometry width="50" height="50" relative="1" as="geometry">
            <mxPoint x="100" y="280" as="sourcePoint" />
            <mxPoint x="273.9999999999966" y="230" as="targetPoint" />
          </mxGeometry>
        </mxCell>
        <mxCell id="9B-9gMZka3vors6aTcEZ-34" value="List Words" style="ellipse;whiteSpace=wrap;html=1;fillColor=#dae8fc;strokeColor=#6c8ebf;" vertex="1" parent="1">
          <mxGeometry x="320" y="600" width="150" height="80" as="geometry" />
        </mxCell>
        <mxCell id="9B-9gMZka3vors6aTcEZ-35" value="" style="endArrow=none;html=1;rounded=0;entryX=0;entryY=0.5;entryDx=0;entryDy=0;exitX=1;exitY=0.3333333333333333;exitDx=0;exitDy=0;exitPerimeter=0;" edge="1" parent="1" target="9B-9gMZka3vors6aTcEZ-34" source="BPOh-EkQY-3shNrvovxU-5">
          <mxGeometry width="50" height="50" relative="1" as="geometry">
            <mxPoint x="100" y="290" as="sourcePoint" />
            <mxPoint x="253.9999999999966" y="505" as="targetPoint" />
          </mxGeometry>
        </mxCell>
        <mxCell id="9B-9gMZka3vors6aTcEZ-36" value="Delete Words" style="ellipse;whiteSpace=wrap;html=1;fillColor=#dae8fc;strokeColor=#6c8ebf;" vertex="1" parent="1">
          <mxGeometry x="330" y="880" width="150" height="80" as="geometry" />
        </mxCell>
        <mxCell id="9B-9gMZka3vors6aTcEZ-37" value="" style="endArrow=none;html=1;rounded=0;entryX=0;entryY=0.5;entryDx=0;entryDy=0;exitX=1;exitY=0.3333333333333333;exitDx=0;exitDy=0;exitPerimeter=0;" edge="1" parent="1" target="9B-9gMZka3vors6aTcEZ-36" source="BPOh-EkQY-3shNrvovxU-5">
          <mxGeometry width="50" height="50" relative="1" as="geometry">
            <mxPoint x="100" y="796.6666666666665" as="sourcePoint" />
            <mxPoint x="273.9999999999966" y="620" as="targetPoint" />
          </mxGeometry>
        </mxCell>
        <mxCell id="9B-9gMZka3vors6aTcEZ-38" value="Clear Word Statuses" style="ellipse;whiteSpace=wrap;html=1;fillColor=#dae8fc;strokeColor=#6c8ebf;" vertex="1" parent="1">
          <mxGeometry x="180" y="1004.72" width="150" height="80" as="geometry" />
        </mxCell>
        <mxCell id="9B-9gMZka3vors6aTcEZ-39" value="" style="endArrow=none;html=1;rounded=0;entryX=0;entryY=0.5;entryDx=0;entryDy=0;exitX=1;exitY=0.3333333333333333;exitDx=0;exitDy=0;exitPerimeter=0;" edge="1" parent="1" target="9B-9gMZka3vors6aTcEZ-38" source="BPOh-EkQY-3shNrvovxU-5">
          <mxGeometry width="50" height="50" relative="1" as="geometry">
            <mxPoint x="50" y="490" as="sourcePoint" />
            <mxPoint x="273.9999999999966" y="740" as="targetPoint" />
          </mxGeometry>
        </mxCell>
        <mxCell id="9B-9gMZka3vors6aTcEZ-43" value="&amp;lt;&amp;lt;extend&amp;gt;&amp;gt;" style="endArrow=open;endSize=12;dashed=1;html=1;rounded=0;entryX=0.011;entryY=0.325;entryDx=0;entryDy=0;entryPerimeter=0;exitX=0.5;exitY=0;exitDx=0;exitDy=0;" edge="1" parent="1" target="9B-9gMZka3vors6aTcEZ-44" source="9B-9gMZka3vors6aTcEZ-34">
          <mxGeometry width="160" relative="1" as="geometry">
            <mxPoint x="500.0032698765443" y="665.8892685802467" as="sourcePoint" />
            <mxPoint x="422.17999999999995" y="780.56" as="targetPoint" />
            <Array as="points" />
          </mxGeometry>
        </mxCell>
        <mxCell id="9B-9gMZka3vors6aTcEZ-44" value="Favorite" style="ellipse;whiteSpace=wrap;html=1;" vertex="1" parent="1">
          <mxGeometry x="600" y="570" width="110" height="49.44" as="geometry" />
        </mxCell>
        <mxCell id="9B-9gMZka3vors6aTcEZ-45" value="&amp;lt;&amp;lt;extend&amp;gt;&amp;gt;" style="endArrow=open;endSize=12;dashed=1;html=1;rounded=0;entryX=0.011;entryY=0.325;entryDx=0;entryDy=0;entryPerimeter=0;exitX=1;exitY=0.5;exitDx=0;exitDy=0;" edge="1" parent="1" target="9B-9gMZka3vors6aTcEZ-46" source="9B-9gMZka3vors6aTcEZ-34">
          <mxGeometry width="160" relative="1" as="geometry">
            <mxPoint x="425" y="675" as="sourcePoint" />
            <mxPoint x="452.17999999999995" y="855.56" as="targetPoint" />
            <Array as="points" />
          </mxGeometry>
        </mxCell>
        <mxCell id="9B-9gMZka3vors6aTcEZ-46" value="Learning" style="ellipse;whiteSpace=wrap;html=1;" vertex="1" parent="1">
          <mxGeometry x="800" y="620" width="110" height="49.44" as="geometry" />
        </mxCell>
        <mxCell id="9B-9gMZka3vors6aTcEZ-47" value="&amp;lt;&amp;lt;extend&amp;gt;&amp;gt;" style="endArrow=open;endSize=12;dashed=1;html=1;rounded=0;entryX=0.011;entryY=0.325;entryDx=0;entryDy=0;entryPerimeter=0;" edge="1" parent="1" target="9B-9gMZka3vors6aTcEZ-48" source="9B-9gMZka3vors6aTcEZ-34">
          <mxGeometry width="160" relative="1" as="geometry">
            <mxPoint x="425" y="755" as="sourcePoint" />
            <mxPoint x="452.17999999999995" y="935.56" as="targetPoint" />
            <Array as="points" />
          </mxGeometry>
        </mxCell>
        <mxCell id="9B-9gMZka3vors6aTcEZ-48" value="Mastered" style="ellipse;whiteSpace=wrap;html=1;" vertex="1" parent="1">
          <mxGeometry x="660" y="669.44" width="110" height="49.44" as="geometry" />
        </mxCell>
        <mxCell id="9B-9gMZka3vors6aTcEZ-49" value="&amp;lt;&amp;lt;extend&amp;gt;&amp;gt;" style="endArrow=open;endSize=12;dashed=1;html=1;rounded=0;entryX=0.011;entryY=0.325;entryDx=0;entryDy=0;entryPerimeter=0;" edge="1" parent="1" target="9B-9gMZka3vors6aTcEZ-50" source="9B-9gMZka3vors6aTcEZ-34">
          <mxGeometry width="160" relative="1" as="geometry">
            <mxPoint x="414" y="815" as="sourcePoint" />
            <mxPoint x="441.17999999999995" y="995.56" as="targetPoint" />
            <Array as="points" />
          </mxGeometry>
        </mxCell>
        <mxCell id="9B-9gMZka3vors6aTcEZ-50" value="Tagged&amp;nbsp;" style="ellipse;whiteSpace=wrap;html=1;" vertex="1" parent="1">
          <mxGeometry x="620" y="730" width="110" height="49.44" as="geometry" />
        </mxCell>
        <mxCell id="9B-9gMZka3vors6aTcEZ-52" value="&amp;lt;&amp;lt;extend&amp;gt;&amp;gt;" style="endArrow=open;endSize=12;dashed=1;html=1;rounded=0;entryX=0.011;entryY=0.325;entryDx=0;entryDy=0;entryPerimeter=0;exitX=0.5;exitY=1;exitDx=0;exitDy=0;" edge="1" parent="1" target="9B-9gMZka3vors6aTcEZ-53" source="9B-9gMZka3vors6aTcEZ-34">
          <mxGeometry width="160" relative="1" as="geometry">
            <mxPoint x="320.0016127523795" y="699.9953943766484" as="sourcePoint" />
            <mxPoint x="320.42999999999995" y="1023.8599999999999" as="targetPoint" />
            <Array as="points" />
          </mxGeometry>
        </mxCell>
        <mxCell id="9B-9gMZka3vors6aTcEZ-53" value="From Collection" style="ellipse;whiteSpace=wrap;html=1;" vertex="1" parent="1">
          <mxGeometry x="490" y="760" width="110" height="49.44" as="geometry" />
        </mxCell>
        <mxCell id="9B-9gMZka3vors6aTcEZ-54" value="&amp;lt;&amp;lt;extend&amp;gt;&amp;gt;" style="endArrow=open;endSize=12;dashed=1;html=1;rounded=0;entryX=0.011;entryY=0.325;entryDx=0;entryDy=0;entryPerimeter=0;exitX=0.974;exitY=0.292;exitDx=0;exitDy=0;exitPerimeter=0;" edge="1" parent="1" target="9B-9gMZka3vors6aTcEZ-55" source="9B-9gMZka3vors6aTcEZ-36">
          <mxGeometry width="160" relative="1" as="geometry">
            <mxPoint x="482.5" y="910" as="sourcePoint" />
            <mxPoint x="509.67999999999995" y="1090.56" as="targetPoint" />
            <Array as="points" />
          </mxGeometry>
        </mxCell>
        <mxCell id="9B-9gMZka3vors6aTcEZ-55" value="Favorite" style="ellipse;whiteSpace=wrap;html=1;" vertex="1" parent="1">
          <mxGeometry x="710" y="860" width="110" height="49.44" as="geometry" />
        </mxCell>
        <mxCell id="9B-9gMZka3vors6aTcEZ-56" value="&amp;lt;&amp;lt;extend&amp;gt;&amp;gt;" style="endArrow=open;endSize=12;dashed=1;html=1;rounded=0;entryX=0.011;entryY=0.325;entryDx=0;entryDy=0;entryPerimeter=0;" edge="1" parent="1" target="9B-9gMZka3vors6aTcEZ-57" source="9B-9gMZka3vors6aTcEZ-36">
          <mxGeometry width="160" relative="1" as="geometry">
            <mxPoint x="557.5" y="950" as="sourcePoint" />
            <mxPoint x="539.68" y="1165.56" as="targetPoint" />
            <Array as="points" />
          </mxGeometry>
        </mxCell>
        <mxCell id="9B-9gMZka3vors6aTcEZ-57" value="Learning" style="ellipse;whiteSpace=wrap;html=1;" vertex="1" parent="1">
          <mxGeometry x="810" y="910.56" width="110" height="49.44" as="geometry" />
        </mxCell>
        <mxCell id="9B-9gMZka3vors6aTcEZ-58" value="&amp;lt;&amp;lt;extend&amp;gt;&amp;gt;" style="endArrow=open;endSize=12;dashed=1;html=1;rounded=0;entryX=0.011;entryY=0.325;entryDx=0;entryDy=0;entryPerimeter=0;" edge="1" parent="1" target="9B-9gMZka3vors6aTcEZ-59" source="9B-9gMZka3vors6aTcEZ-36">
          <mxGeometry width="160" relative="1" as="geometry">
            <mxPoint x="551.6078617890589" y="965.5410024118935" as="sourcePoint" />
            <mxPoint x="539.68" y="1245.56" as="targetPoint" />
            <Array as="points" />
          </mxGeometry>
        </mxCell>
        <mxCell id="9B-9gMZka3vors6aTcEZ-59" value="Mastered" style="ellipse;whiteSpace=wrap;html=1;" vertex="1" parent="1">
          <mxGeometry x="670" y="950" width="110" height="49.44" as="geometry" />
        </mxCell>
        <mxCell id="9B-9gMZka3vors6aTcEZ-60" value="&amp;lt;&amp;lt;extend&amp;gt;&amp;gt;" style="endArrow=open;endSize=12;dashed=1;html=1;rounded=0;entryX=0.011;entryY=0.325;entryDx=0;entryDy=0;entryPerimeter=0;exitX=1;exitY=1;exitDx=0;exitDy=0;" edge="1" parent="1" target="9B-9gMZka3vors6aTcEZ-61" source="9B-9gMZka3vors6aTcEZ-36">
          <mxGeometry width="160" relative="1" as="geometry">
            <mxPoint x="528.2516127523795" y="981.6953943766484" as="sourcePoint" />
            <mxPoint x="528.68" y="1305.56" as="targetPoint" />
            <Array as="points" />
          </mxGeometry>
        </mxCell>
        <mxCell id="9B-9gMZka3vors6aTcEZ-61" value="Tagged&amp;nbsp;" style="ellipse;whiteSpace=wrap;html=1;" vertex="1" parent="1">
          <mxGeometry x="770" y="1020" width="110" height="49.44" as="geometry" />
        </mxCell>
        <mxCell id="9B-9gMZka3vors6aTcEZ-62" value="&amp;lt;&amp;lt;extend&amp;gt;&amp;gt;" style="endArrow=open;endSize=12;dashed=1;html=1;rounded=0;entryX=0.011;entryY=0.325;entryDx=0;entryDy=0;entryPerimeter=0;exitX=0.964;exitY=0.215;exitDx=0;exitDy=0;exitPerimeter=0;" edge="1" parent="1" target="9B-9gMZka3vors6aTcEZ-63" source="9B-9gMZka3vors6aTcEZ-38">
          <mxGeometry width="160" relative="1" as="geometry">
            <mxPoint x="282.3799999999999" y="1033.36" as="sourcePoint" />
            <mxPoint x="315.9599999999999" y="1220.56" as="targetPoint" />
            <Array as="points" />
          </mxGeometry>
        </mxCell>
        <mxCell id="9B-9gMZka3vors6aTcEZ-63" value="Favorite" style="ellipse;whiteSpace=wrap;html=1;" vertex="1" parent="1">
          <mxGeometry x="550" y="1030" width="110" height="49.44" as="geometry" />
        </mxCell>
        <mxCell id="9B-9gMZka3vors6aTcEZ-64" value="&amp;lt;&amp;lt;extend&amp;gt;&amp;gt;" style="endArrow=open;endSize=12;dashed=1;html=1;rounded=0;entryX=0.011;entryY=0.325;entryDx=0;entryDy=0;entryPerimeter=0;exitX=1;exitY=0.5;exitDx=0;exitDy=0;" edge="1" parent="1" target="9B-9gMZka3vors6aTcEZ-65" source="9B-9gMZka3vors6aTcEZ-38">
          <mxGeometry width="160" relative="1" as="geometry">
            <mxPoint x="286.2523245180528" y="1051.0865554277977" as="sourcePoint" />
            <mxPoint x="345.9599999999999" y="1295.56" as="targetPoint" />
            <Array as="points" />
          </mxGeometry>
        </mxCell>
        <mxCell id="9B-9gMZka3vors6aTcEZ-65" value="Learning" style="ellipse;whiteSpace=wrap;html=1;" vertex="1" parent="1">
          <mxGeometry x="620" y="1100" width="110" height="49.44" as="geometry" />
        </mxCell>
        <mxCell id="9B-9gMZka3vors6aTcEZ-66" value="&amp;lt;&amp;lt;extend&amp;gt;&amp;gt;" style="endArrow=open;endSize=12;dashed=1;html=1;rounded=0;entryX=0.011;entryY=0.325;entryDx=0;entryDy=0;entryPerimeter=0;exitX=0.938;exitY=0.745;exitDx=0;exitDy=0;exitPerimeter=0;" edge="1" parent="1" target="9B-9gMZka3vors6aTcEZ-67" source="9B-9gMZka3vors6aTcEZ-38">
          <mxGeometry width="160" relative="1" as="geometry">
            <mxPoint x="282.63765891537105" y="1062.3139322907057" as="sourcePoint" />
            <mxPoint x="345.9599999999999" y="1375.56" as="targetPoint" />
            <Array as="points" />
          </mxGeometry>
        </mxCell>
        <mxCell id="9B-9gMZka3vors6aTcEZ-67" value="Mastered" style="ellipse;whiteSpace=wrap;html=1;" vertex="1" parent="1">
          <mxGeometry x="480" y="1130" width="110" height="49.44" as="geometry" />
        </mxCell>
        <mxCell id="9B-9gMZka3vors6aTcEZ-68" value="&amp;lt;&amp;lt;extend&amp;gt;&amp;gt;" style="endArrow=open;endSize=12;dashed=1;html=1;rounded=0;entryX=0.011;entryY=0.325;entryDx=0;entryDy=0;entryPerimeter=0;exitX=0.782;exitY=0.968;exitDx=0;exitDy=0;exitPerimeter=0;" edge="1" parent="1" target="9B-9gMZka3vors6aTcEZ-69" source="9B-9gMZka3vors6aTcEZ-38">
          <mxGeometry width="160" relative="1" as="geometry">
            <mxPoint x="263.99828090574215" y="1078.4511357269084" as="sourcePoint" />
            <mxPoint x="334.9599999999999" y="1435.56" as="targetPoint" />
            <Array as="points" />
          </mxGeometry>
        </mxCell>
        <mxCell id="9B-9gMZka3vors6aTcEZ-69" value="Tagged&amp;nbsp;" style="ellipse;whiteSpace=wrap;html=1;" vertex="1" parent="1">
          <mxGeometry x="450" y="1220" width="110" height="49.44" as="geometry" />
        </mxCell>
      </root>
    </mxGraphModel>
  </diagram>
</mxfile>
